# xmcd CD database file
#
# Track frame offsets:
#	150
#	12720
#	24445
#	34712
#	51705
#	64015
#	79937
#	92065
#	107875
#	135075
#	159480
#	193272
#
# Disc length: 2888 seconds
#
# Revision: 1
# Processed by: cddbd v1.5.2PL0 Copyright (c) Steve Scherf et al.
# Submitted via: CDex 1.70beta3
#
DISCID=a00b460c
DTITLE=秋吉敏子 - アメイジング・トキコ・アキヨシ
DYEAR=1957
DGENRE=Jazz
TTITLE0=恋とは何でしょう?
TTITLE1=風と共に去りぬ
TTITLE2=幸福になりたい
TTITLE3=トシコのブルース
TTITLE4=シャドラック
TTITLE5=ソリダード
TTITLE6=スクォッティ・ルー
TTITLE7=ローラ
TTITLE8=ビトウィーン・ミー・アンド・マイセルフ
TTITLE9=ブルース・フォー・トシコ
TTITLE10=四月の想い出
TTITLE11=ラヴァー
EXTD=YEAR: 1957
EXTT0=
EXTT1=
EXTT2=
EXTT3=
EXTT4=
EXTT5=
EXTT6=
EXTT7=
EXTT8=
EXTT9=
EXTT10=
EXTT11=
PLAYORDER=
